<svg width="295" height="76" viewBox="0 0 295 76" fill="none" xmlns="http://www.w3.org/2000/svg">
<path d="M27.3986 27.777C24.6256 26.3617 21.1139 25.6513 16.8573 25.6513C13.7212 25.6513 10.9482 26.1084 8.53194 27.028C6.1157 27.9422 4.22528 29.1977 2.86693 30.7947C1.50232 32.3918 0.688558 34.0493 0.413132 35.773C0.137706 37.4967 0 40.0849 0 43.5323V57.5089C0 62.1953 0.444437 65.7087 1.33957 68.0436C2.23471 70.3786 4.05001 72.2069 6.79801 73.523C9.54601 74.8447 13.0327 75.5 17.2705 75.5C21.3455 75.5 24.7758 74.718 27.5551 73.1595C30.3344 71.6011 32.1309 69.7838 32.9447 67.7132C33.7585 65.6426 34.1653 62.1292 34.1653 57.1784V55.3116L19.7117 61.3252C19.7117 63.952 19.5427 65.6206 19.211 66.331C18.8792 67.0414 18.1781 67.3993 17.1014 67.3993C15.981 67.3993 15.2611 67.0469 14.9356 66.3365C14.6164 65.6261 14.4536 64.1117 14.4536 61.7877V39.5673C14.4536 37.1442 14.6164 35.5693 14.9356 34.8423C15.2548 34.1154 16.0123 33.7465 17.2016 33.7465C18.2532 33.7465 18.9355 34.0438 19.2423 34.6441C19.549 35.2443 19.7055 36.7532 19.7055 39.1708V47.4862L34.1591 42.943C34.1591 38.4769 33.7272 35.1893 32.8571 33.0746C31.987 30.9545 30.1717 29.1922 27.3986 27.777Z" fill="url(#paint0_linear_308_3)"/>
<path d="M67.3165 36.1695C65.6077 35.1067 63.542 34.5725 61.1195 34.5725C59.542 34.5725 58.0585 34.8093 56.6751 35.2829C55.2917 35.7565 54.0022 36.4669 52.8129 37.4141L38.9414 3.965V74.4867H52.8129V46.506C52.8129 44.518 52.9631 43.1854 53.2573 42.519C53.5578 41.8472 54.1274 41.5167 54.9725 41.5167C55.8864 41.5167 56.4748 41.8417 56.7377 42.4915C57.0006 43.1413 56.7377 52.3048 56.7377 54.5902L71.0035 74.4922V47.4532C71.0035 43.7691 70.8157 41.2304 70.4401 39.8426C70.0645 38.4604 69.0254 37.2324 67.3165 36.1695Z" fill="url(#paint1_linear_308_3)"/>
<path d="M101.432 36.7147C99.0531 35.2884 95.5164 34.5725 90.8216 34.5725C86.9093 34.5725 83.7231 35.2058 81.2756 36.4614C78.8281 37.7225 77.1943 39.1763 76.3806 40.8174C75.5668 42.4639 75.1599 44.7989 75.1599 47.8332V50.4655H88.1738V46.3573C88.1738 44.1711 88.2865 42.8164 88.5181 42.2932C88.7434 41.77 89.3318 41.5112 90.2708 41.5112C91.0971 41.5112 91.6855 41.8196 92.0423 42.4419C92.3991 43.0642 92.5744 44.3969 92.5744 46.4454C92.5744 48.081 92.4116 49.1659 92.0923 49.6945C91.7731 50.2287 89.3318 51.2585 84.781 52.7949C80.5245 54.2157 77.8578 55.4548 76.7812 56.5176C75.7045 57.5804 75.1662 59.5795 75.1662 62.5146V65.7362C75.1662 69.6957 76.1803 72.2619 78.2021 73.4349C80.224 74.6079 82.4524 75.1916 84.8812 75.1916C86.7341 75.1916 88.3303 74.8391 89.6698 74.1398C91.0094 73.4404 92.1049 72.3886 92.9499 70.9898V74.4812H99.6165L106.446 54.7994C106.446 48.3178 106.208 44.0389 105.726 41.9628C105.244 39.8977 103.81 38.1465 101.432 36.7147ZM92.5744 63.9134C92.5744 65.8849 92.4429 67.1019 92.18 67.5645C91.9171 68.0271 91.3475 68.2584 90.4774 68.2584C89.5634 68.2584 88.95 67.961 88.6433 67.3718C88.3365 66.7825 88.18 65.4719 88.18 63.4398C88.18 61.6666 88.3553 60.3064 88.7121 59.3647C89.0689 58.4175 90.3522 57.25 92.5744 55.8457V63.9134Z" fill="url(#paint2_linear_308_3)"/>
<path d="M111.216 32.8874H118.414C122.327 32.8874 125.5 30.0954 125.5 26.6535H118.302C114.389 26.6535 111.216 29.4456 111.216 32.8874Z" fill="url(#paint3_linear_308_3)"/>
<path d="M104.724 74.4922H118.358L125.5 55.8457V35.2774H119.766C115.04 35.2774 111.215 38.6476 111.215 42.7998V55.8402L104.724 74.4922Z" fill="url(#paint4_linear_308_3)"/>
<path d="M158.915 36.0208C157.406 35.0571 155.459 34.5725 153.081 34.5725C151.178 34.5725 149.506 34.9304 148.048 35.6518C146.596 36.3733 145.362 37.4526 144.355 38.8954L144.592 35.2829H130.483V55.8513V74.4977H144.355V47.9929C144.355 45.0357 144.48 43.2184 144.73 42.541C144.981 41.8637 145.6 41.5222 146.583 41.5222C147.522 41.5222 148.092 41.8196 148.298 42.4088C148.505 42.9981 148.605 44.6447 148.605 47.343L162.476 74.4977V47.0181C162.476 43.5928 162.257 41.1423 161.825 39.6774C161.393 38.2016 160.423 36.9845 158.915 36.0208Z" fill="url(#paint5_linear_308_3)"/>
<path d="M182.094 0.00546265L164.392 74.4922L180.229 55.3611C180.686 51.1318 181.543 45.1237 182.795 37.3204C183.434 44.2592 184.072 50.2287 184.711 55.2289L200.923 74.4922L182.094 0.00546265Z" fill="url(#paint6_linear_308_3)"/>
<path d="M216.291 40.4374L216.842 35.2829H206.582L202.97 74.4922L216.842 59.0068C216.842 55.207 216.979 52.7784 217.255 51.7211C217.53 50.6693 218.263 49.8432 219.452 49.254C220.641 48.6647 222.507 48.3674 225.048 48.3674V42.2932V34.567C221.223 34.7928 218.306 36.7477 216.291 40.4374Z" fill="url(#paint7_linear_308_3)"/>
<path d="M258.8 47.701C258.8 44.0169 258.375 43.5543 257.53 41.5498C256.685 39.5397 254.976 37.8766 252.415 36.555C249.849 35.2333 246.763 34.578 243.145 34.578C239.508 34.578 236.416 35.2443 233.874 36.5715C231.333 37.8987 229.674 39.4131 228.898 41.1092C228.122 42.8053 227.727 45.3165 227.727 48.6427V59.7832C227.727 63.605 228.203 66.5567 229.154 68.6328C230.106 70.709 231.727 72.328 234.012 73.4789C236.303 74.6299 239.402 75.2081 243.32 75.2081C246.387 75.2081 248.96 74.7896 251.045 73.9525C253.129 73.1155 254.813 71.8764 256.109 70.2299C257.404 68.5833 258.168 66.9808 258.406 65.4113C258.644 63.8418 258.775 61.4959 258.8 58.3624L246.437 63.0323C246.437 65.0589 246.268 66.4411 245.937 67.168C245.605 67.8949 244.973 68.2639 244.034 68.2639C243.233 68.2639 242.625 67.917 242.212 67.2176C241.799 66.5182 241.592 65.4719 241.592 64.0731V45.5753C241.592 43.8627 241.73 42.7558 242.006 42.2657C242.281 41.7755 242.819 41.5277 243.621 41.5277C244.422 41.5277 244.973 41.8086 245.267 42.3703C245.561 42.932 245.711 44.0003 245.711 45.5753L246.031 50.5866L258.8 47.701Z" fill="url(#paint8_linear_308_3)"/>
<path d="M294.424 39.8481C294.048 38.4604 293.003 37.2324 291.3 36.1695C289.598 35.1067 287.526 34.5725 285.103 34.5725C283.526 34.5725 282.042 34.8093 280.659 35.2829C279.276 35.7565 277.986 36.4669 276.797 37.4141L262.925 0V74.4867H276.797V46.506C276.797 44.518 276.947 43.1853 277.241 42.519C277.535 41.8472 278.111 41.5167 278.956 41.5167C279.87 41.5167 280.459 41.8416 280.728 42.4915C280.991 43.1413 280.578 52.2498 280.578 54.5351L295 74.4977V47.4587C294.994 43.7746 294.8 41.2359 294.424 39.8481Z" fill="url(#paint9_linear_308_3)"/>
<defs>
<linearGradient id="paint0_linear_308_3" x1="16.9421" y1="34.7311" x2="20.7295" y2="75.1583" gradientUnits="userSpaceOnUse">
<stop stop-color="#BD06FD"/>
<stop offset="1" stop-color="#2C004F" stop-opacity="0.92"/>
</linearGradient>
<linearGradient id="paint1_linear_308_3" x1="54.8406" y1="16.8114" x2="62.8306" y2="73.3824" gradientUnits="userSpaceOnUse">
<stop stop-color="#BD06FD"/>
<stop offset="1" stop-color="#2C004F" stop-opacity="0.92"/>
</linearGradient>
<linearGradient id="paint2_linear_308_3" x1="90.6742" y1="41.9712" x2="93.4253" y2="74.973" gradientUnits="userSpaceOnUse">
<stop stop-color="#BD06FD"/>
<stop offset="1" stop-color="#2C004F" stop-opacity="0.92"/>
</linearGradient>
<linearGradient id="paint3_linear_308_3" x1="118.299" y1="27.789" x2="118.442" y2="32.885" gradientUnits="userSpaceOnUse">
<stop stop-color="#BD06FD"/>
<stop offset="1" stop-color="#2C004F" stop-opacity="0.92"/>
</linearGradient>
<linearGradient id="paint4_linear_308_3" x1="115.027" y1="42.4203" x2="118.859" y2="74.0382" gradientUnits="userSpaceOnUse">
<stop stop-color="#BD06FD"/>
<stop offset="1" stop-color="#2C004F" stop-opacity="0.92"/>
</linearGradient>
<linearGradient id="paint5_linear_308_3" x1="146.348" y1="41.8448" x2="148.949" y2="74.2999" gradientUnits="userSpaceOnUse">
<stop stop-color="#BD06FD"/>
<stop offset="1" stop-color="#2C004F" stop-opacity="0.92"/>
</linearGradient>
<linearGradient id="paint6_linear_308_3" x1="182.507" y1="13.573" x2="190.351" y2="73.485" gradientUnits="userSpaceOnUse">
<stop stop-color="#BD06FD"/>
<stop offset="1" stop-color="#2C004F" stop-opacity="0.92"/>
</linearGradient>
<linearGradient id="paint7_linear_308_3" x1="213.918" y1="41.8393" x2="217.661" y2="74.0683" gradientUnits="userSpaceOnUse">
<stop stop-color="#BD06FD"/>
<stop offset="1" stop-color="#2C004F" stop-opacity="0.92"/>
</linearGradient>
<linearGradient id="paint8_linear_308_3" x1="243.136" y1="41.9787" x2="245.907" y2="74.9862" gradientUnits="userSpaceOnUse">
<stop stop-color="#BD06FD"/>
<stop offset="1" stop-color="#2C004F" stop-opacity="0.92"/>
</linearGradient>
<linearGradient id="paint9_linear_308_3" x1="278.831" y1="13.5696" x2="287.722" y2="73.1914" gradientUnits="userSpaceOnUse">
<stop stop-color="#BD06FD"/>
<stop offset="1" stop-color="#2C004F" stop-opacity="0.92"/>
</linearGradient>
</defs>
</svg>
