<svg width="602" height="648" viewBox="0 0 602 648" fill="none" xmlns="http://www.w3.org/2000/svg">
<g clip-path="url(#clip0_100_1688)">
<mask id="mask0_100_1688" style="mask-type:luminance" maskUnits="userSpaceOnUse" x="0" y="0" width="602" height="648">
<path d="M602 0H0V648H602V0Z" fill="white"/>
</mask>
<g mask="url(#mask0_100_1688)">
<g opacity="0.2">
<path d="M404.011 573.767L406.394 569.411L232.041 553.608L224.749 557.236L347.384 568.543L323.936 582.08L202.597 571.084L195.304 574.711L374.566 591.241L376.949 586.885L358.711 585.231L382.076 571.743L404.011 573.767ZM352.358 584.657L330.291 582.656L353.722 569.128L375.736 571.158L352.358 584.657Z" fill="#062E68"/>
<path d="M257.346 356.648L30.7893 487.464L183.982 575.907L249.627 575.816L269.711 587.415H303.332L341.723 565.247L315.531 550.293L455.729 469.351L257.346 356.648Z" fill="#062E68"/>
</g>
<path d="M78.5418 440.306L47.9585 457.962L69.4687 470.379H78.855L78.5418 440.306Z" fill="#062E68"/>
<path d="M79.1046 470.132L58.0981 458.003V448.849L79.1046 460.977V470.132Z" fill="#520A8A"/>
<path d="M111.606 451.079L78.603 470.132V460.977L111.606 441.924V451.079Z" fill="#8C3BBE"/>
<path d="M79.1046 461.477L58.0959 449.348L91.0971 430.295L112.106 442.424L79.1046 461.477Z" fill="#592D7C"/>
<path d="M533.295 526.85L508.627 541.092L524.288 550.134H531.123L533.295 526.85Z" fill="#062E68"/>
<path d="M531.248 550.073L515.953 541.241V534.577L531.248 543.409V550.073Z" fill="#520A8A"/>
<path d="M547.607 540.481L530.998 550.071V543.407L547.607 533.817V540.481Z" fill="#8C3BBE"/>
<path d="M531.184 543.595L515.889 534.763L532.498 525.173L547.793 534.005L531.184 543.595Z" fill="#592D7C"/>
<path d="M319.337 613.541L285.961 632.813L307.149 645.047H316.396L319.337 613.541Z" fill="#062E68"/>
<path d="M316.523 644.922L295.827 632.973V623.955L316.523 635.903V644.922Z" fill="#520A8A"/>
<path d="M338.745 631.948L316.271 644.922V635.903L338.745 622.93V631.948Z" fill="#8C3BBE"/>
<path d="M316.52 636.155L295.825 624.206L318.299 611.233L338.994 623.182L316.52 636.155Z" fill="#592D7C"/>
<path d="M157.415 581.269C152.161 575.893 147.065 570.365 141.439 565.39L102.38 587.94L130.211 604.008H155.148L147.435 581.269H157.415Z" fill="#062E68"/>
<path d="M155.148 603.757L127.966 588.065V564.7L155.148 580.392V603.757Z" fill="#520A8A"/>
<path d="M154.896 580.641V604.006L197.597 579.353V555.988L154.896 580.641Z" fill="#8C3BBE"/>
<path d="M155.398 581.14L128.218 565.449L170.916 540.796L198.096 556.487L155.398 581.14Z" fill="#592D7C"/>
<path d="M496.07 463.66L465.486 481.316L486.997 493.733H496.383L496.07 463.66Z" fill="#062E68"/>
<path d="M496.506 493.608L475.499 481.48V472.326L496.506 484.454V493.608Z" fill="#520A8A"/>
<path d="M529.384 474.555L496.381 493.608V484.454L529.384 465.401V474.555Z" fill="#8C3BBE"/>
<path d="M496.506 484.706L475.499 472.578L508.5 453.525L529.509 465.653L496.506 484.706Z" fill="#592D7C"/>
<path d="M316.895 329.321L282.919 309.705L316.895 290.089L350.871 309.705L316.895 329.321Z" fill="#D3EBFF"/>
<path d="M316.895 365.901L282.919 346.287V309.705L316.895 329.319V365.901Z" fill="#386BA9"/>
<path d="M350.871 346.287L316.895 365.901V329.319L350.871 309.705V346.287Z" fill="#85B7E0"/>
<path d="M355.115 351.387L321.139 331.772L355.115 312.156L389.09 331.772L355.115 351.387Z" fill="#D3EBFF"/>
<path d="M355.117 387.967L321.141 368.353V331.772L355.117 351.385V387.967Z" fill="#386BA9"/>
<path d="M389.09 368.353L355.115 387.967V351.385L389.09 331.772V368.353Z" fill="#85B7E0"/>
<path d="M393.337 373.454L359.361 353.838L393.337 334.222L427.313 353.838L393.337 373.454Z" fill="#D3EBFF"/>
<path d="M393.337 410.034L359.361 390.42V353.838L393.337 373.452V410.034Z" fill="#386BA9"/>
<path d="M427.313 390.42L393.337 410.034V373.452L427.313 353.838V390.42Z" fill="#85B7E0"/>
<path d="M431.557 395.52L397.581 375.905L431.557 356.289L465.533 375.905L431.557 395.52Z" fill="#E7D4FF"/>
<path d="M431.557 432.1L397.581 412.486V375.905L431.557 395.518V432.1Z" fill="#396CAA"/>
<path d="M465.533 412.486L431.557 432.1V395.518L465.533 375.905V412.486Z" fill="#86B8E1"/>
<path d="M278.557 351.455L244.581 331.839L278.557 312.224L312.533 331.839L278.557 351.455Z" fill="#D3EBFF"/>
<path d="M278.557 388.035L244.581 368.421V331.839L278.557 351.453V388.035Z" fill="#386BA9"/>
<path d="M312.533 368.421L278.557 388.035V351.453L312.533 331.839V368.421Z" fill="#85B7E0"/>
<path d="M316.777 373.522L282.801 353.906L316.777 334.29L350.752 353.906L316.777 373.522Z" fill="#D3EBFF"/>
<path d="M316.777 410.101L282.801 390.488V353.906L316.777 373.52V410.101Z" fill="#386BA9"/>
<path d="M350.753 390.488L316.777 410.101V373.52L350.753 353.906V390.488Z" fill="#85B7E0"/>
<path d="M354.997 395.588L321.021 375.972L354.997 356.356L388.972 375.972L354.997 395.588Z" fill="#D3EBFF"/>
<path d="M354.999 432.168L321.023 412.554V375.972L354.999 395.586V432.168Z" fill="#386BA9"/>
<path d="M388.972 412.554L354.997 432.168V395.586L388.972 375.972V412.554Z" fill="#85B7E0"/>
<path d="M413.875 422.002L409.125 429.001L404.125 456.376L414.563 466.003L418.5 460.752V424.126L413.875 422.002Z" fill="#335282"/>
<path d="M414.694 430.107L380.718 410.491L414.694 390.875L448.67 410.491L414.694 430.107Z" fill="#592D7C"/>
<path d="M414.571 466.562L380.595 446.948V410.366L414.571 429.98V466.562Z" fill="#520A8A"/>
<path d="M448.545 446.823L414.569 466.437V429.855L448.545 410.242V446.823Z" fill="#8C3BBE"/>
<path d="M240.219 373.59L206.243 353.974L240.219 334.358L274.194 353.974L240.219 373.59Z" fill="#D3EBFF"/>
<path d="M240.219 410.171L206.243 390.558V353.976L240.219 373.59V410.171Z" fill="#386BA9"/>
<path d="M274.192 390.558L240.217 410.171V373.59L274.192 353.976V390.558Z" fill="#85B7E0"/>
<path d="M278.439 395.656L244.463 376.04L278.439 356.424L312.414 376.04L278.439 395.656Z" fill="#D3EBFF"/>
<path d="M278.439 432.238L244.463 412.624V376.042L278.439 395.656V432.238Z" fill="#386BA9"/>
<path d="M312.414 412.624L278.438 432.238V395.656L312.414 376.042V412.624Z" fill="#85B7E0"/>
<path d="M316.659 417.723L282.683 398.107L316.659 378.491L350.634 398.107L316.659 417.723Z" fill="#D3EBFF"/>
<path d="M316.659 454.304L282.683 434.691V398.109L316.659 417.723V454.304Z" fill="#386BA9"/>
<path d="M350.634 434.691L316.659 454.304V417.723L350.634 398.109V434.691Z" fill="#85B7E0"/>
<path d="M354.881 439.789L320.905 420.173L354.881 400.557L388.856 420.173L354.881 439.789Z" fill="#E7D4FF"/>
<path d="M354.881 476.371L320.905 456.757V420.175L354.881 439.789V476.371Z" fill="#396CAA"/>
<path d="M388.854 456.757L354.878 476.371V439.789L388.854 420.175V456.757Z" fill="#86B8E1"/>
<path d="M201.817 395.759L167.841 376.143L201.817 356.527L235.792 376.143L201.817 395.759Z" fill="#E7D4FF"/>
<path d="M201.817 432.341L167.841 412.727V376.145L201.817 395.759V432.341Z" fill="#396CAA"/>
<path d="M235.792 412.727L201.817 432.341V395.759L235.792 376.145V412.727Z" fill="#86B8E1"/>
<path d="M240.1 417.79L206.125 398.175L240.1 378.559L274.076 398.175L240.1 417.79Z" fill="#E7D4FF"/>
<path d="M240.1 454.372L206.125 434.759V398.177L240.1 417.791V454.372Z" fill="#396CAA"/>
<path d="M274.074 434.759L240.098 454.372V417.791L274.074 398.177V434.759Z" fill="#86B8E1"/>
<path d="M278.203 439.929L244.228 420.313L278.203 400.698L312.179 420.313L278.203 439.929Z" fill="#E7D4FF"/>
<path d="M278.203 476.509L244.228 456.895V420.313L278.203 439.927V476.509Z" fill="#396CAA"/>
<path d="M312.179 456.895L278.203 476.509V439.927L312.179 420.313V456.895Z" fill="#86B8E1"/>
<path d="M316.288 481.502L311.538 488.501L306.539 515.876L316.976 525.503L320.914 520.252V483.626L316.288 481.502Z" fill="#335282"/>
<path d="M316.54 489.18L282.564 469.564L316.54 449.948L350.516 469.564L316.54 489.18Z" fill="#592D7C"/>
<path d="M316.54 525.762L282.564 506.148V469.566L316.54 489.18V525.762Z" fill="#520A8A"/>
<path d="M350.516 506.148L316.54 525.762V489.18L350.516 469.566V506.148Z" fill="#8C3BBE"/>
<path d="M316.895 287.678L282.919 268.062L316.895 248.447L350.871 268.062L316.895 287.678Z" fill="#E7D4FF"/>
<path d="M316.895 324.26L282.919 304.646V268.065L316.895 287.678V324.26Z" fill="#396CAA"/>
<path d="M350.871 304.646L316.895 324.26V287.678L350.871 268.065V304.646Z" fill="#86B8E1"/>
<path d="M355.115 309.747L321.139 290.131L355.115 270.515L389.09 290.131L355.115 309.747Z" fill="#E7D4FF"/>
<path d="M355.117 346.327L321.141 326.713V290.131L355.117 309.745V346.327Z" fill="#396CAA"/>
<path d="M389.09 326.713L355.115 346.327V309.745L389.09 290.131V326.713Z" fill="#86B8E1"/>
<path d="M393.337 331.813L359.361 312.197L393.337 292.582L427.313 312.197L393.337 331.813Z" fill="#E7D4FF"/>
<path d="M393.337 368.393L359.361 348.779V312.197L393.337 331.811V368.393Z" fill="#396CAA"/>
<path d="M427.313 348.779L393.337 368.393V331.811L427.313 312.197V348.779Z" fill="#86B8E1"/>
<path d="M432.254 354.284L398.279 334.668L432.254 315.052L466.23 334.668L432.254 354.284Z" fill="#E7D4FF"/>
<path d="M432.254 390.863L398.279 371.249V334.668L432.254 354.281V390.863Z" fill="#396CAA"/>
<path d="M466.23 371.249L432.254 390.863V354.281L466.23 334.668V371.249Z" fill="#86B8E1"/>
<path d="M278.557 309.907L244.581 290.291L278.557 270.675L312.533 290.291L278.557 309.907Z" fill="#E7D4FF"/>
<path d="M278.557 346.394L244.581 326.781V290.199L278.557 309.812V346.394Z" fill="#396CAA"/>
<path d="M312.533 326.781L278.557 346.394V309.812L312.533 290.199V326.781Z" fill="#86B8E1"/>
<path d="M316.963 332.067L282.987 312.452L316.963 292.836L350.939 312.452L316.963 332.067Z" fill="#E7D4FF"/>
<path d="M316.777 368.461L282.801 348.847V312.265L316.777 331.879V368.461Z" fill="#396CAA"/>
<path d="M350.753 348.847L316.777 368.461V331.879L350.753 312.265V348.847Z" fill="#86B8E1"/>
<path d="M354.997 354.04L321.021 334.424L354.997 314.808L388.972 334.424L354.997 354.04Z" fill="#E7D4FF"/>
<path d="M354.999 390.527L321.023 370.914V334.332L354.999 353.945V390.527Z" fill="#396CAA"/>
<path d="M388.972 370.914L354.997 390.527V353.945L388.972 334.332V370.914Z" fill="#86B8E1"/>
<path d="M393.285 376.053L359.309 356.437L393.285 336.821L427.26 356.437L393.285 376.053Z" fill="#E7D4FF"/>
<path d="M393.285 412.633L359.309 393.019V356.437L393.285 376.051V412.633Z" fill="#396CAA"/>
<path d="M427.26 393.019L393.285 412.633V376.051L427.26 356.437V393.019Z" fill="#86B8E1"/>
<path d="M240.219 331.949L206.243 312.333L240.219 292.717L274.194 312.333L240.219 331.949Z" fill="#E7D4FF"/>
<path d="M240.219 368.529L206.243 348.915V312.333L240.219 331.947V368.529Z" fill="#396CAA"/>
<path d="M274.192 348.915L240.217 368.529V331.947L274.192 312.333V348.915Z" fill="#86B8E1"/>
<path d="M278.439 354.015L244.463 334.4L278.439 314.784L312.414 334.4L278.439 354.015Z" fill="#E7D4FF"/>
<path d="M278.439 390.595L244.463 370.981V334.4L278.439 354.013V390.595Z" fill="#396CAA"/>
<path d="M312.414 370.981L278.438 390.595V354.013L312.414 334.4V370.981Z" fill="#86B8E1"/>
<path d="M316.659 376.128L282.683 356.512L316.659 336.896L350.634 356.512L316.659 376.128Z" fill="#E7D4FF"/>
<path d="M316.659 412.664L282.683 393.05V356.468L316.659 376.082V412.664Z" fill="#396CAA"/>
<path d="M350.634 393.05L316.659 412.664V376.082L350.634 356.468V393.05Z" fill="#86B8E1"/>
<path d="M354.881 398.148L320.905 378.532L354.881 358.917L388.856 378.532L354.881 398.148Z" fill="#E7D4FF"/>
<path d="M354.881 434.73L320.905 415.116V378.535L354.881 398.148V434.73Z" fill="#396CAA"/>
<path d="M388.854 415.116L354.878 434.73V398.148L388.854 378.535V415.116Z" fill="#86B8E1"/>
<path d="M200.42 355.046L166.445 335.431L200.42 315.815L234.396 335.431L200.42 355.046Z" fill="#E7D4FF"/>
<path d="M200.42 391.628L166.445 372.015V335.433L200.42 355.047V391.628Z" fill="#396CAA"/>
<path d="M234.396 372.015L200.42 391.628V355.047L234.396 335.433V372.015Z" fill="#86B8E1"/>
<path d="M240.086 376.159L206.11 356.543L240.086 336.927L274.062 356.543L240.086 376.159Z" fill="#E7D4FF"/>
<path d="M240.086 412.741L206.11 393.127V356.545L240.086 376.159V412.741Z" fill="#396CAA"/>
<path d="M274.06 393.127L240.084 412.741V376.159L274.06 356.545V393.127Z" fill="#86B8E1"/>
<path d="M277.235 398.751L243.259 379.136L277.235 359.52L311.21 379.136L277.235 398.751Z" fill="#E7D4FF"/>
<path d="M277.375 435.401L243.399 415.787V379.206L277.375 398.819V435.401Z" fill="#396CAA"/>
<path d="M311.351 415.787L277.375 435.401V398.819L311.351 379.206V415.787Z" fill="#86B8E1"/>
<path d="M316.448 420.34L282.473 400.724L316.448 381.109L350.424 400.724L316.448 420.34Z" fill="#E7D4FF"/>
<path d="M316.448 456.92L282.473 437.306V400.724L316.448 420.338V456.92Z" fill="#396CAA"/>
<path d="M350.424 437.306L316.448 456.92V420.338L350.424 400.724V437.306Z" fill="#86B8E1"/>
<path d="M316.895 246.037L282.919 226.422L316.895 206.806L350.871 226.422L316.895 246.037Z" fill="#E7D4FF"/>
<path d="M316.895 282.619L282.919 263.006V226.424L316.895 246.037V282.619Z" fill="#396CAA"/>
<path d="M350.871 263.006L316.895 282.619V246.037L350.871 226.424V263.006Z" fill="#86B8E1"/>
<path d="M355.115 268.104L321.139 248.488L355.115 228.872L389.09 248.488L355.115 268.104Z" fill="#E7D4FF"/>
<path d="M355.117 304.686L321.141 285.072V248.49L355.117 268.104V304.686Z" fill="#396CAA"/>
<path d="M389.09 285.072L355.115 304.686V268.104L389.09 248.49V285.072Z" fill="#86B8E1"/>
<path d="M393.337 290.172L359.361 270.557L393.337 250.941L427.313 270.557L393.337 290.172Z" fill="#E7D4FF"/>
<path d="M393.337 326.752L359.361 307.138V270.557L393.337 290.17V326.752Z" fill="#396CAA"/>
<path d="M427.313 307.138L393.337 326.752V290.17L427.313 270.557V307.138Z" fill="#86B8E1"/>
<path d="M431.677 312.169L397.701 292.553L431.677 272.937L465.652 292.553L431.677 312.169Z" fill="#E7D4FF"/>
<path d="M431.677 348.749L397.701 329.135V292.553L431.677 312.167V348.749Z" fill="#396CAA"/>
<path d="M465.652 329.135L431.677 348.749V312.167L465.652 292.553V329.135Z" fill="#86B8E1"/>
<path d="M316.777 290.24L282.801 270.625L316.777 251.009L350.752 270.625L316.777 290.24Z" fill="#E7D4FF"/>
<path d="M316.777 326.82L282.801 307.206V270.625L316.777 290.238V326.82Z" fill="#396CAA"/>
<path d="M350.753 307.206L316.777 326.82V290.238L350.753 270.625V307.206Z" fill="#86B8E1"/>
<path d="M354.997 312.307L321.021 292.691L354.997 273.075L388.972 292.691L354.997 312.307Z" fill="#E7D4FF"/>
<path d="M354.999 348.886L321.023 329.273V292.691L354.999 312.305V348.886Z" fill="#396CAA"/>
<path d="M388.972 329.273L354.997 348.886V312.305L388.972 292.691V329.273Z" fill="#86B8E1"/>
<path d="M278.439 312.375L244.463 292.759L278.439 273.143L312.414 292.759L278.439 312.375Z" fill="#E7D4FF"/>
<path d="M278.439 348.954L244.463 329.341V292.759L278.439 312.373V348.954Z" fill="#396CAA"/>
<path d="M312.414 329.341L278.438 348.954V312.373L312.414 292.759V329.341Z" fill="#86B8E1"/>
<path d="M316.659 334.441L282.683 314.825L316.659 295.209L350.634 314.825L316.659 334.441Z" fill="#E7D4FF"/>
<path d="M316.659 371.023L282.683 351.409V314.828L316.659 334.441V371.023Z" fill="#396CAA"/>
<path d="M350.634 351.409L316.659 371.023V334.441L350.634 314.828V351.409Z" fill="#86B8E1"/>
<path d="M354.881 356.508L320.905 336.892L354.881 317.276L388.856 336.892L354.881 356.508Z" fill="#E7D4FF"/>
<path d="M354.881 393.089L320.905 373.476V336.894L354.881 356.508V393.089Z" fill="#396CAA"/>
<path d="M388.854 373.476L354.878 393.089V356.508L388.854 336.894V373.476Z" fill="#86B8E1"/>
<path d="M200.148 313.477L166.172 293.861L200.148 274.245L234.123 293.861L200.148 313.477Z" fill="#E7D4FF"/>
<path d="M200.148 350.059L166.172 330.445V293.864L200.148 313.477V350.059Z" fill="#396CAA"/>
<path d="M234.123 330.445L200.147 350.059V313.477L234.123 293.864V330.445Z" fill="#86B8E1"/>
<path d="M158.249 374.001L153.499 381.001L148.499 408.376L158.937 418.003L162.874 412.751V376.126L158.249 374.001Z" fill="#335282"/>
<path d="M158.641 381.664L124.666 362.048L158.641 342.433L192.617 362.048L158.641 381.664Z" fill="#592D7C"/>
<path d="M158.768 418.119L124.792 398.505V361.924L158.768 381.537V418.119Z" fill="#520A8A"/>
<path d="M192.492 398.505L158.516 418.119V381.537L192.492 361.924V398.505Z" fill="#8C3BBE"/>
<path d="M277.653 356.978L243.677 337.362L277.653 317.746L311.629 337.362L277.653 356.978Z" fill="#E7D4FF"/>
<path d="M277.653 393.559L243.677 373.946V337.364L277.653 356.978V393.559Z" fill="#396CAA"/>
<path d="M311.628 373.946L277.653 393.559V356.978L311.628 337.364V373.946Z" fill="#86B8E1"/>
<path d="M316.54 378.642L282.564 359.026L316.54 339.41L350.516 359.026L316.54 378.642Z" fill="#E7D4FF"/>
<path d="M316.54 415.224L282.564 395.61V359.028L316.54 378.642V415.224Z" fill="#396CAA"/>
<path d="M350.516 395.61L316.54 415.224V378.642L350.516 359.028V395.61Z" fill="#86B8E1"/>
<path d="M316.75 204.314L282.774 184.698L316.75 165.082L350.725 184.698L316.75 204.314Z" fill="#E7D4FF"/>
<path d="M316.75 240.895L282.774 221.282V184.7L316.75 204.314V240.895Z" fill="#396CAA"/>
<path d="M350.725 221.282L316.75 240.895V204.314L350.725 184.7V221.282Z" fill="#86B8E1"/>
<path d="M356.234 225.814L322.258 206.198L356.234 186.583L390.21 206.198L356.234 225.814Z" fill="#E7D4FF"/>
<path d="M356.236 262.396L322.26 242.782V206.201L356.236 225.814V262.396Z" fill="#396CAA"/>
<path d="M390.21 242.782L356.234 262.396V225.814L390.21 206.201V242.782Z" fill="#86B8E1"/>
<path d="M393.524 248.421L359.548 228.805L393.524 209.189L427.499 228.805L393.524 248.421Z" fill="#E7D4FF"/>
<path d="M393.524 285.001L359.548 265.387V228.805L393.524 248.419V285.001Z" fill="#396CAA"/>
<path d="M427.499 265.387L393.523 285.001V248.419L427.499 228.805V265.387Z" fill="#86B8E1"/>
<path d="M444.377 196.5L439.627 203.499L434.627 230.874L445.065 240.501L449.003 235.25V198.624L444.377 196.5Z" fill="#335282"/>
<path d="M445.058 204.885L411.083 185.269L445.058 165.654L479.034 185.269L445.058 204.885Z" fill="#592D7C"/>
<path d="M445.183 241.34L411.207 221.726V185.145L445.183 204.758V241.34Z" fill="#520A8A"/>
<path d="M478.97 221.726L444.995 241.34V204.758L478.97 185.145V221.726Z" fill="#8C3BBE"/>
<path d="M187.374 166.002L182.624 173.001L177.624 200.376L188.062 210.003L191.999 204.752V168.126L187.374 166.002Z" fill="#335282"/>
<path d="M187.965 174.479L153.99 154.863L187.965 135.248L221.941 154.863L187.965 174.479Z" fill="#592D7C"/>
<path d="M188.09 210.809L154.115 191.196V154.614L188.09 174.227V210.809Z" fill="#520A8A"/>
<path d="M221.816 191.196L187.841 210.809V174.227L221.816 154.614V191.196Z" fill="#8C3BBE"/>
<path d="M316.777 248.6L282.801 228.984L316.777 209.368L350.752 228.984L316.777 248.6Z" fill="#E7D4FF"/>
<path d="M316.777 285.179L282.801 265.566V228.984L316.777 248.598V285.179Z" fill="#396CAA"/>
<path d="M350.753 265.566L316.777 285.179V248.598L350.753 228.984V265.566Z" fill="#86B8E1"/>
<path d="M354.997 270.666L321.021 251.05L354.997 231.435L388.972 251.05L354.997 270.666Z" fill="#E7D4FF"/>
<path d="M354.999 307.246L321.023 287.632V251.051L354.999 270.664V307.246Z" fill="#396CAA"/>
<path d="M388.972 287.632L354.997 307.246V270.664L388.972 251.051V287.632Z" fill="#86B8E1"/>
<path d="M393.227 292.737L359.251 273.121L393.227 253.506L427.203 273.121L393.227 292.737Z" fill="#E7D4FF"/>
<path d="M393.227 329.317L359.251 309.703V273.121L393.227 292.735V329.317Z" fill="#396CAA"/>
<path d="M427.203 309.703L393.227 329.317V292.735L427.203 273.121V309.703Z" fill="#86B8E1"/>
<path d="M202.124 219.127L197.374 226.126L192.374 253.501L202.811 263.128L206.749 257.877V221.251L202.124 219.127Z" fill="#335282"/>
<path d="M202.881 227.236L168.906 207.62L202.881 188.005L236.857 207.62L202.881 227.236Z" fill="#592D7C"/>
<path d="M203.006 263.691L169.031 244.077V207.496L203.006 227.109V263.691Z" fill="#520A8A"/>
<path d="M236.732 244.077L202.757 263.691V227.109L236.732 207.496V244.077Z" fill="#8C3BBE"/>
<path d="M278.439 270.734L244.463 251.118L278.439 231.502L312.414 251.118L278.439 270.734Z" fill="#E7D4FF"/>
<path d="M278.439 307.314L244.463 287.7V251.118L278.439 270.732V307.314Z" fill="#396CAA"/>
<path d="M312.414 287.7L278.438 307.314V270.732L312.414 251.118V287.7Z" fill="#86B8E1"/>
<path d="M315.999 101.502L311.249 108.501L306.25 135.876L316.687 145.503L320.625 140.252V103.626L315.999 101.502Z" fill="#335282"/>
<path d="M316.783 109.581L282.808 89.965L316.783 70.3491L350.759 89.965L316.783 109.581Z" fill="#592D7C"/>
<path d="M316.659 146.035L282.683 126.422V89.8401L316.659 109.454V146.035Z" fill="#520A8A"/>
<path d="M350.604 126.391L316.628 146.005V109.423L350.604 89.8094V126.391Z" fill="#8C3BBE"/>
<path d="M354.893 314.874L320.917 295.258L354.893 275.642L388.869 295.258L354.893 314.874Z" fill="#E7D4FF"/>
<path d="M354.893 351.456L320.917 331.842V295.26L354.893 314.874V351.456Z" fill="#396CAA"/>
<path d="M388.866 331.842L354.891 351.456V314.874L388.866 295.26V331.842Z" fill="#86B8E1"/>
<path d="M200.55 271.598L166.574 251.982L200.55 232.366L234.526 251.982L200.55 271.598Z" fill="#E7D4FF"/>
<path d="M200.55 308.179L166.574 288.566V251.984L200.55 271.598V308.179Z" fill="#396CAA"/>
<path d="M234.525 288.566L200.55 308.179V271.598L234.525 251.984V288.566Z" fill="#86B8E1"/>
<path d="M239.289 293.367L205.313 273.751L239.289 254.136L273.264 273.751L239.289 293.367Z" fill="#E7D4FF"/>
<path d="M239.289 329.949L205.313 310.335V273.754L239.289 293.367V329.949Z" fill="#396CAA"/>
<path d="M273.262 310.335L239.287 329.949V293.367L273.262 273.754V310.335Z" fill="#86B8E1"/>
<path d="M278.294 314.951L244.318 295.335L278.294 275.719L312.27 295.335L278.294 314.951Z" fill="#E7D4FF"/>
<path d="M278.294 351.532L244.318 331.919V295.337L278.294 314.951V351.532Z" fill="#396CAA"/>
<path d="M312.27 331.919L278.294 351.532V314.951L312.27 295.337V331.919Z" fill="#86B8E1"/>
<path d="M315.925 337.354L281.949 317.738L315.925 298.122L349.901 317.738L315.925 337.354Z" fill="#E7D4FF"/>
<path d="M315.925 373.936L281.949 354.322V317.74L315.925 337.354V373.936Z" fill="#396CAA"/>
<path d="M349.901 354.322L315.925 373.936V337.354L349.901 317.74V354.322Z" fill="#86B8E1"/>
<mask id="mask1_100_1688" style="mask-type:luminance" maskUnits="userSpaceOnUse" x="-225" y="-65" width="1000" height="1000">
<path d="M-225 -65H775V935H-225V-65Z" fill="white"/>
</mask>
<g mask="url(#mask1_100_1688)">
<g opacity="0.6">
<path d="M341.72 266.333C368.902 266.333 390.971 279.104 390.971 294.833C390.971 310.562 368.902 323.333 341.72 323.333C314.539 323.333 292.47 310.562 292.47 294.833C292.47 279.104 314.539 266.333 341.72 266.333Z" fill="#062E68"/>
</g>
<path d="M397.85 265.947L397.068 277.564C391.91 237.127 298.812 236.878 293.444 277.266C283.916 225.951 391.348 221.946 397.85 265.947Z" fill="#D5D0C8"/>
<path d="M308.51 251.709C333.21 237.202 388.704 238.634 396.988 271.166C395.761 228.379 294.805 228.143 293.584 270.998C294.323 263.969 299.287 257.068 308.51 251.709Z" fill="#396CAA"/>
<path d="M399.379 266.39C409.004 323.615 281.264 323.274 291.196 266.082C296.574 308.305 393.78 308.562 399.379 266.39Z" fill="#DFDCD8"/>
<path d="M383.432 244.075C404.596 256.295 404.71 276.184 383.676 288.407C362.649 300.626 328.311 300.626 307.147 288.407C285.975 276.184 285.865 256.295 306.89 244.075C327.924 231.852 362.26 231.852 383.432 244.075ZM308.757 287.472C329.03 299.177 361.914 299.177 382.056 287.472C402.207 275.763 402.099 256.716 381.825 245.011C361.545 233.301 328.661 233.301 308.51 245.011C288.368 256.716 288.476 275.763 308.757 287.472Z" fill="#FDFAF5"/>
<path d="M400.855 296.93C393.675 293.699 381.687 280.979 379.339 296.626C378.231 300.037 393.076 305.89 394.651 307.545C390.916 304.456 396.321 295.118 400.855 296.93Z" fill="#D2CDC4"/>
<path d="M404.27 293.915C396.55 290.829 387.346 306.731 393.705 311.988L447.113 342.822L457.676 324.749L404.27 293.915Z" fill="#142841"/>
<path d="M458.989 337.597C461.881 332.588 461.237 326.803 457.555 324.676C453.872 322.548 448.541 324.885 445.649 329.894C442.756 334.903 443.4 340.688 447.083 342.815C450.766 344.943 456.097 342.606 458.989 337.597Z" fill="#48525E"/>
<mask id="mask2_100_1688" style="mask-type:luminance" maskUnits="userSpaceOnUse" x="293" y="242" width="104" height="59">
<path d="M381.825 251.018C361.542 239.308 328.661 239.308 308.51 251.018C288.368 262.723 288.228 279.772 308.508 291.481C328.782 303.186 361.663 303.186 381.805 291.481C401.954 279.772 402.099 262.723 381.825 251.018Z" fill="white"/>
</mask>
<g mask="url(#mask2_100_1688)">
<g opacity="0.6">
<path d="M346.139 239.028C376.218 239.028 400.639 252.696 400.639 269.529C400.639 286.362 376.218 300.029 346.139 300.029C316.061 300.029 291.639 286.362 291.639 269.529C291.639 252.696 316.061 239.028 346.139 239.028Z" fill="#3F8BC9"/>
</g>
<path d="M304.757 253.719C301.471 256.93 297.114 253.386 294.11 251.665C291.133 249.971 295.999 247.849 297.642 247.829C299.119 248.02 308.392 251.737 304.757 253.719ZM302.534 253.943C303.276 253.473 305.327 252.702 303.668 251.847C301.436 250.82 297.548 247.045 295.144 249.676C292.675 250.635 301.753 255.32 302.534 253.943Z" fill="#80E4FF"/>
<path d="M322.528 243.458C319.243 246.669 314.888 243.121 311.885 241.401C308.904 239.71 313.774 237.584 315.413 237.568C316.894 237.756 326.167 241.472 322.528 243.458ZM320.306 243.679C321.048 243.209 323.099 242.441 321.44 241.585C319.211 240.562 315.319 236.784 312.918 239.415C310.446 240.377 319.522 245.059 320.306 243.679Z" fill="#80E4FF"/>
<path d="M301.209 275.648C297.924 278.858 293.569 275.311 290.566 273.59C287.585 271.899 292.455 269.773 294.094 269.757C295.575 269.945 304.848 273.665 301.209 275.648ZM298.987 275.868C299.729 275.398 301.779 274.63 300.121 273.775C297.891 272.751 294 268.973 291.599 271.604C289.127 272.566 298.203 277.248 298.987 275.868Z" fill="#80E4FF"/>
<path d="M318.384 265.73C315.099 268.941 310.741 265.396 307.738 263.676C304.76 261.981 309.627 259.859 311.269 259.84C312.747 260.031 322.02 263.747 318.384 265.73ZM316.162 265.953C316.904 265.484 318.954 264.713 317.296 263.857C315.066 262.83 311.175 259.056 308.771 261.686C306.302 262.645 315.381 267.33 316.162 265.953Z" fill="#80E4FF"/>
<path d="M317.173 258.064C315.698 257.721 317.179 255.624 318.002 255.297C318.303 255.145 327.46 260.238 327.23 260.624C326.601 262.159 319.013 256.509 318.278 256.431C318.077 256.59 317.646 258.456 317.173 258.064Z" fill="#80E4FF"/>
<path d="M335.56 255.812C332.274 259.023 327.917 255.479 324.913 253.758C321.939 252.064 326.802 249.942 328.445 249.922C329.922 250.113 339.195 253.83 335.56 255.812ZM333.337 256.036C334.079 255.566 336.13 254.795 334.471 253.94C332.242 252.913 328.351 249.138 325.947 251.769C323.478 252.728 332.556 257.413 333.337 256.036Z" fill="#80E4FF"/>
<path d="M284.958 296.546C283.48 296.202 284.967 294.106 285.79 293.779C286.072 293.63 295.254 298.72 295.015 299.102C294.383 300.644 286.801 294.991 286.062 294.913C285.862 295.075 285.431 296.938 284.958 296.546Z" fill="#80E4FF"/>
<path d="M354.122 264.978C350.836 268.189 346.478 264.645 343.475 262.924C340.497 261.23 345.364 259.107 347.006 259.088C348.484 259.279 357.757 262.995 354.122 264.978ZM351.899 265.202C352.641 264.732 354.692 263.961 353.033 263.106C350.801 262.079 346.913 258.304 344.508 260.935C342.04 261.894 351.118 266.579 351.899 265.202Z" fill="#80E4FF"/>
<path d="M371.896 254.714C368.611 257.925 364.253 254.38 361.25 252.66C358.272 250.965 363.138 248.843 364.781 248.824C366.259 249.015 375.531 252.731 371.896 254.714ZM369.674 254.938C370.416 254.468 372.466 253.697 370.808 252.841C368.578 251.814 364.687 248.04 362.283 250.671C359.814 251.63 368.893 256.315 369.674 254.938Z" fill="#80E4FF"/>
<path d="M382.203 248.762C378.917 251.973 374.559 248.428 371.556 246.708C368.578 245.013 373.445 242.891 375.088 242.872C376.565 243.063 385.838 246.779 382.203 248.762ZM379.98 248.986C380.722 248.516 382.773 247.745 381.114 246.889C378.885 245.862 374.994 242.088 372.59 244.719C370.121 245.678 379.199 250.363 379.98 248.986Z" fill="#80E4FF"/>
<path d="M328.474 299.666C325.189 302.877 320.834 299.329 317.83 297.608C314.85 295.917 319.719 293.792 321.359 293.776C322.84 293.963 332.112 297.683 328.474 299.666ZM326.251 299.886C326.993 299.416 329.044 298.648 327.385 297.793C325.156 296.769 321.265 292.991 318.864 295.622C316.392 296.585 325.467 301.266 326.251 299.886Z" fill="#80E4FF"/>
<path d="M327.262 291.997C325.785 291.653 327.272 289.557 328.095 289.23C328.412 289.071 337.536 294.177 337.319 294.553C336.687 296.092 329.106 290.441 328.367 290.364C328.166 290.526 327.735 292.389 327.262 291.997Z" fill="#80E4FF"/>
<path d="M334.429 287.859C332.955 287.516 334.439 285.42 335.261 285.092C335.602 284.927 344.69 290.04 344.486 290.419C343.857 291.955 336.269 286.304 335.534 286.226C335.333 286.385 334.902 288.251 334.429 287.859Z" fill="#80E4FF"/>
<path d="M359.983 281.473C356.697 284.684 352.339 281.139 349.336 279.419C346.362 277.724 351.225 275.602 352.867 275.583C354.345 275.774 363.618 279.49 359.983 281.473ZM357.76 281.697C358.502 281.227 360.553 280.456 358.894 279.6C356.665 278.573 352.774 274.799 350.369 277.43C347.901 278.389 356.979 283.074 357.76 281.697Z" fill="#80E4FF"/>
<path d="M380.003 269.916C376.717 273.127 372.359 269.582 369.356 267.862C366.378 266.167 371.245 264.045 372.888 264.026C374.365 264.217 383.638 267.933 380.003 269.916ZM377.78 270.14C378.522 269.67 380.573 268.899 378.914 268.043C376.682 267.016 372.794 263.242 370.39 265.873C367.921 266.832 376.999 271.517 377.78 270.14Z" fill="#80E4FF"/>
<path d="M397.178 259.998C393.893 263.209 389.535 259.665 386.531 257.944C383.554 256.25 388.42 254.128 390.063 254.108C391.54 254.299 400.813 258.016 397.178 259.998ZM394.955 260.222C395.697 259.752 397.748 258.981 396.089 258.126C393.857 257.099 389.969 253.324 387.565 255.955C385.096 256.914 394.174 261.599 394.955 260.222Z" fill="#80E4FF"/>
<path d="M348.666 299.52C347.188 299.177 348.675 297.08 349.498 296.753C349.825 296.591 358.933 301.707 358.723 302.08C358.091 303.619 350.509 297.968 349.77 297.887C349.57 298.049 349.139 299.912 348.666 299.52Z" fill="#80E4FF"/>
<path d="M366.903 297.356C363.618 300.566 359.26 297.022 356.257 295.301C353.279 293.607 358.146 291.485 359.788 291.465C361.266 291.656 370.539 295.373 366.903 297.356ZM364.681 297.579C365.423 297.109 367.474 296.338 365.815 295.483C363.582 294.456 359.694 290.681 357.29 293.312C354.821 294.271 363.9 298.956 364.681 297.579Z" fill="#80E4FF"/>
<path d="M382.42 280.031C380.943 279.688 382.43 277.592 383.253 277.264C383.554 277.112 392.704 282.209 392.477 282.588C391.845 284.13 384.264 278.476 383.525 278.398C383.324 278.56 382.893 280.423 382.42 280.031Z" fill="#80E4FF"/>
<path d="M382.459 299.889C380.984 299.546 382.465 297.45 383.288 297.122C383.602 296.964 392.739 302.067 392.516 302.449C391.887 303.985 384.299 298.334 383.563 298.256C383.363 298.418 382.932 300.281 382.459 299.889Z" fill="#80E4FF"/>
<path d="M286.072 256.14C284.598 255.796 286.078 253.7 286.901 253.373C287.216 253.214 296.352 258.32 296.129 258.699C295.5 260.235 287.912 254.584 287.177 254.507C286.976 254.669 286.545 256.532 286.072 256.14Z" fill="#0F4BC2"/>
<path d="M303.843 245.879C302.366 245.535 303.853 243.439 304.676 243.112C304.984 242.956 314.124 248.056 313.9 248.435C313.268 249.977 305.687 244.323 304.948 244.246C304.747 244.408 304.316 246.271 303.843 245.879Z" fill="#0F4BC2"/>
<path d="M299.997 267.979C298.523 267.635 300.007 265.539 300.83 265.212C301.151 265.05 310.275 270.159 310.054 270.538C309.426 272.077 301.838 266.423 301.102 266.346C300.901 266.508 300.47 268.371 299.997 267.979Z" fill="#0F4BC2"/>
<path d="M334.351 248.146C332.874 247.803 334.361 245.707 335.184 245.38C335.511 245.218 344.619 250.33 344.408 250.703C343.776 252.242 336.195 246.591 335.456 246.514C335.255 246.676 334.824 248.539 334.351 248.146Z" fill="#0F4BC2"/>
<path d="M352.735 245.898C349.453 249.109 345.095 245.561 342.091 243.841C339.111 242.149 343.98 240.024 345.62 240.008C347.097 240.196 356.373 243.915 352.735 245.898ZM350.512 246.118C351.254 245.649 353.305 244.881 351.646 244.025C349.417 243.001 345.526 239.224 343.125 241.854C340.653 242.817 349.728 247.499 350.512 246.118Z" fill="#0F4BC2"/>
<path d="M362.743 240.118C359.458 243.329 355.1 239.784 352.097 238.064C349.119 236.369 353.986 234.247 355.628 234.227C357.106 234.419 366.379 238.135 362.743 240.118ZM360.521 240.341C361.263 239.871 363.314 239.1 361.655 238.245C359.422 237.218 355.534 233.443 353.13 236.074C350.661 237.033 359.74 241.718 360.521 240.341Z" fill="#0F4BC2"/>
<path d="M303.642 294.122C300.357 297.333 296.003 293.785 292.999 292.065C290.018 290.373 294.885 288.248 296.527 288.232C298.005 288.42 307.281 292.139 303.642 294.122ZM301.42 294.342C302.162 293.873 304.213 293.105 302.554 292.249C300.325 291.225 296.433 287.448 294.033 290.078C291.561 291.041 300.636 295.723 301.42 294.342Z" fill="#0F4BC2"/>
<path d="M302.729 286.282C301.255 285.938 302.735 283.842 303.558 283.515C303.856 283.366 313.019 288.456 312.786 288.841C312.157 290.377 304.569 284.726 303.834 284.649C303.633 284.807 303.202 286.674 302.729 286.282Z" fill="#0F4BC2"/>
<path d="M321.414 283.861C318.128 287.072 313.771 283.527 310.767 281.807C307.793 280.112 312.656 277.99 314.299 277.971C315.776 278.162 325.049 281.878 321.414 283.861ZM319.191 284.085C319.933 283.615 321.984 282.844 320.325 281.988C318.093 280.961 314.205 277.187 311.801 279.818C309.332 280.777 318.41 285.462 319.191 284.085Z" fill="#0F4BC2"/>
<path d="M320.503 276.02C319.029 275.677 320.513 273.581 321.336 273.253C321.657 273.095 330.777 278.198 330.56 278.58C329.932 280.116 322.344 274.465 321.608 274.387C321.407 274.549 320.976 276.412 320.503 276.02Z" fill="#0F4BC2"/>
<path d="M327.972 271.711C326.494 271.368 327.981 269.271 328.804 268.944C329.135 268.782 338.236 273.895 338.029 274.268C337.397 275.807 329.815 270.159 329.077 270.078C328.876 270.24 328.445 272.103 327.972 271.711Z" fill="#0F4BC2"/>
<path d="M335.436 267.399C333.962 267.055 335.443 264.959 336.266 264.632C336.58 264.473 345.717 269.576 345.493 269.958C344.865 271.494 337.277 265.843 336.541 265.766C336.34 265.928 335.909 267.791 335.436 267.399Z" fill="#0F4BC2"/>
<path d="M353.211 257.138C351.734 256.794 353.221 254.698 354.044 254.371C354.374 254.209 363.476 259.321 363.268 259.694C362.636 261.233 355.055 255.586 354.316 255.505C354.115 255.667 353.684 257.53 353.211 257.138Z" fill="#0F4BC2"/>
<path d="M381.292 240.925C379.815 240.581 381.302 238.485 382.125 238.158C382.413 238.009 391.583 243.099 391.349 243.481C390.717 245.02 383.136 239.373 382.397 239.292C382.196 239.454 381.765 241.317 381.292 240.925Z" fill="#0F4BC2"/>
<path d="M318.465 305.443C315.18 308.654 310.825 305.106 307.822 303.385C304.841 301.694 309.711 299.569 311.35 299.552C312.831 299.74 322.104 303.46 318.465 305.443ZM316.243 305.663C316.985 305.193 319.036 304.425 317.377 303.57C315.148 302.546 311.256 298.768 308.856 301.399C306.383 302.361 315.459 307.043 316.243 305.663Z" fill="#0F4BC2"/>
<path d="M341.599 283.722C340.122 283.378 341.609 281.282 342.432 280.955C342.717 280.806 351.893 285.896 351.656 286.278C351.024 287.817 343.443 282.167 342.704 282.089C342.503 282.251 342.072 284.114 341.599 283.722Z" fill="#0F4BC2"/>
<path d="M369.991 275.693C366.706 278.904 362.348 275.359 359.345 273.639C356.367 271.944 361.233 269.822 362.876 269.803C364.354 269.994 373.626 273.71 369.991 275.693ZM367.769 275.916C368.51 275.447 370.561 274.676 368.903 273.82C366.67 272.793 362.782 269.019 360.378 271.649C357.909 272.608 366.988 277.293 367.769 275.916Z" fill="#0F4BC2"/>
<path d="M378.791 262.247C377.314 261.904 378.801 259.807 379.624 259.48C379.922 259.328 389.075 264.424 388.848 264.803C388.216 266.346 380.635 260.692 379.896 260.614C379.695 260.776 379.264 262.639 378.791 262.247Z" fill="#0F4BC2"/>
<path d="M407.186 254.218C403.901 257.429 399.543 253.885 396.539 252.164C393.565 250.47 398.428 248.347 400.071 248.328C401.549 248.519 410.821 252.235 407.186 254.218ZM404.963 254.442C405.705 253.972 407.756 253.201 406.097 252.346C403.868 251.319 399.977 247.544 397.573 250.175C395.104 251.134 404.183 255.819 404.963 254.442Z" fill="#0F4BC2"/>
<path d="M365.543 289.774C364.065 289.431 365.552 287.334 366.375 287.007C366.79 286.819 375.752 291.98 375.603 292.334C374.971 293.873 367.386 288.219 366.647 288.141C366.446 288.303 366.016 290.166 365.543 289.774Z" fill="#0F4BC2"/>
<path d="M383.78 287.61C380.495 290.821 376.137 287.279 373.134 285.559C370.156 283.864 375.023 281.742 376.665 281.723C378.143 281.914 387.416 285.627 383.78 287.61ZM381.558 287.837C382.3 287.367 384.351 286.596 382.692 285.74C380.459 284.713 376.571 280.939 374.167 283.569C371.699 284.528 380.777 289.214 381.558 287.837Z" fill="#0F4BC2"/>
<path d="M400.658 277.87C397.372 281.081 393.015 277.54 390.011 275.816C387.037 274.122 391.9 271.999 393.543 271.98C395.02 272.171 404.293 275.887 400.658 277.87ZM398.435 278.094C399.177 277.624 401.228 276.853 399.569 275.998C397.337 274.971 393.449 271.196 391.045 273.827C388.576 274.786 397.654 279.471 398.435 278.094Z" fill="#0F4BC2"/>
<path d="M401.144 297.466C397.858 300.677 393.501 297.132 390.497 295.412C387.52 293.717 392.386 291.595 394.029 291.575C395.506 291.767 404.779 295.483 401.144 297.466ZM398.921 297.689C399.663 297.22 401.714 296.448 400.055 295.593C397.823 294.566 393.935 290.791 391.531 293.422C389.062 294.381 398.14 299.066 398.921 297.689Z" fill="#0F4BC2"/>
</g>
</g>
<path d="M142.043 185.113C140.991 184.868 142.048 183.371 142.635 183.138C142.864 183.022 149.38 186.669 149.222 186.94C148.774 188.036 143.357 184.003 142.832 183.947C142.688 184.063 142.381 185.393 142.043 185.113Z" fill="#6DBDFF"/>
<path d="M199.958 100.31C197.622 102.592 194.525 100.073 192.39 98.85C190.276 97.6456 193.733 96.1371 194.9 96.1233C195.95 96.2592 202.542 98.9007 199.958 100.31ZM198.378 100.469C198.905 100.135 200.363 99.587 199.184 98.979C197.599 98.2489 194.833 95.566 193.125 97.436C191.37 98.1177 197.823 101.448 198.378 100.469Z" fill="#6DBDFF"/>
<path d="M288.23 121.233C287.207 120.994 288.235 119.539 288.806 119.312C289.022 119.202 295.369 122.744 295.211 123.009C294.775 124.075 289.508 120.153 288.997 120.099C288.858 120.211 288.558 121.505 288.23 121.233Z" fill="#6DBDFF"/>
<path d="M176.976 76.3605C175.9 76.1104 176.983 74.584 177.582 74.3457C177.795 74.2348 184.469 77.946 184.299 78.222C183.839 79.345 178.318 75.2281 177.78 75.1714C177.634 75.2894 177.32 76.646 176.976 76.3605Z" fill="#6DBDFF"/>
<path d="M491.562 155.471C490.508 155.226 491.569 153.73 492.157 153.496C492.362 153.39 498.91 157.023 498.742 157.296C498.291 158.397 492.878 154.361 492.351 154.306C492.208 154.421 491.9 155.751 491.562 155.471Z" fill="#6DBDFF"/>
<path d="M99.7643 163.383C98.7459 163.146 99.771 161.701 100.338 161.475C100.544 161.37 106.853 164.883 106.697 165.145C106.261 166.208 101.035 162.311 100.526 162.257C100.387 162.369 100.09 163.653 99.7643 163.383Z" fill="#6DBDFF"/>
<path d="M199.974 113.315C197.629 115.607 194.52 113.074 192.376 111.846C190.248 110.639 193.722 109.122 194.895 109.11C195.949 109.244 202.571 111.9 199.974 113.315ZM198.387 113.472C198.917 113.137 200.381 112.589 199.197 111.978C197.606 111.247 194.828 108.55 193.114 110.428C191.349 111.115 197.828 114.458 198.387 113.472Z" fill="#6DBDFF"/>
<path d="M158.109 141.969C157.088 141.731 158.115 140.28 158.685 140.053C158.916 139.943 165.218 143.477 165.072 143.741C164.637 144.805 159.383 140.892 158.874 140.838C158.734 140.95 158.436 142.24 158.109 141.969Z" fill="#6DBDFF"/>
<path d="M198.818 153.493C197.755 153.246 198.825 151.735 199.418 151.499C199.66 151.38 206.212 155.064 206.065 155.338C205.612 156.444 200.144 152.372 199.614 152.316C199.469 152.433 199.158 153.776 198.818 153.493Z" fill="#6DBDFF"/>
<path d="M420.16 165.36C419.084 165.11 420.167 163.583 420.766 163.345C421.002 163.229 427.639 166.95 427.483 167.221C427.023 168.342 421.502 164.227 420.965 164.171C420.818 164.289 420.505 165.645 420.16 165.36Z" fill="#6DBDFF"/>
<path d="M420.369 129.567C419.359 129.332 420.376 127.898 420.939 127.675C421.222 127.546 427.351 131.075 427.249 131.317C426.817 132.372 421.63 128.503 421.125 128.45C420.987 128.561 420.693 129.835 420.369 129.567Z" fill="#6DBDFF"/>
<path d="M232.683 179.278C230.422 181.487 227.427 179.046 225.36 177.862C223.31 176.699 226.658 175.236 227.788 175.225C228.804 175.355 235.186 177.914 232.683 179.278ZM231.154 179.429C231.664 179.106 233.075 178.578 231.934 177.989C230.4 177.285 227.723 174.686 226.071 176.496C224.371 177.158 230.614 180.379 231.154 179.429Z" fill="#6DBDFF"/>
<path d="M290.117 77.9568C287.868 80.1552 284.884 77.7283 282.828 76.5504C280.791 75.3902 284.121 73.9371 285.246 73.9238C286.257 74.0547 292.606 76.5992 290.117 77.9568ZM288.596 78.1099C289.104 77.7882 290.508 77.2603 289.372 76.6746C287.843 75.9714 285.181 73.387 283.535 75.1883C281.845 75.8449 288.061 79.0527 288.596 78.1099Z" fill="#6DBDFF"/>
<path d="M149.266 174.682C146.887 177.007 143.731 174.44 141.555 173.194C139.399 171.966 142.923 170.429 144.113 170.415C145.183 170.554 151.899 173.245 149.266 174.682ZM147.657 174.843C148.194 174.503 149.679 173.945 148.478 173.325C146.861 172.581 144.045 169.847 142.304 171.753C140.516 172.447 147.091 175.841 147.657 174.843Z" fill="#6DBDFF"/>
<path d="M443.804 152.036C441.544 154.245 438.548 151.804 436.482 150.62C434.431 149.457 437.779 147.994 438.909 147.983C439.926 148.113 446.308 150.672 443.804 152.036ZM442.275 152.187C442.786 151.864 444.197 151.336 443.055 150.747C441.522 150.043 438.845 147.444 437.193 149.254C435.492 149.916 441.736 153.137 442.275 152.187Z" fill="#6DBDFF"/>
<path d="M177.192 223.969C176.187 223.735 177.199 222.305 177.76 222.082C177.979 221.974 184.2 225.453 184.05 225.714C183.621 226.761 178.447 222.908 177.945 222.855C177.808 222.966 177.515 224.236 177.192 223.969Z" fill="#6DBDFF"/>
<path d="M223.631 149.411C221.252 151.737 218.095 149.169 215.92 147.923C213.763 146.696 217.288 145.159 218.478 145.145C219.548 145.283 226.264 147.975 223.631 149.411ZM222.021 149.573C222.559 149.233 224.044 148.674 222.843 148.055C221.226 147.311 218.41 144.577 216.669 146.482C214.88 147.177 221.456 150.57 222.021 149.573Z" fill="#6DBDFF"/>
<path d="M321.56 49.4321C320.495 49.1846 321.567 47.674 322.16 47.4382C322.374 47.3285 328.97 51.001 328.807 51.2742C328.351 52.3855 322.888 48.3114 322.356 48.2554C322.211 48.3721 321.9 49.7146 321.56 49.4321Z" fill="#6DBDFF"/>
<path d="M284.523 112.153C283.5 111.915 284.527 110.46 285.099 110.233C285.306 110.127 291.666 113.663 291.504 113.93C291.068 114.996 285.8 111.074 285.29 111.02C285.15 111.13 284.851 112.426 284.523 112.153Z" fill="#6DBDFF"/>
<path d="M270.811 94.196C269.804 93.962 270.818 92.5335 271.378 92.3105C271.581 92.2067 277.819 95.6797 277.664 95.938C277.234 96.9868 272.067 93.1385 271.564 93.0833C271.427 93.1937 271.133 94.4632 270.811 94.196Z" fill="#6DBDFF"/>
<path d="M354.159 114.131C353.105 113.886 354.166 112.39 354.754 112.156C354.983 112.043 361.491 115.69 361.339 115.956C360.888 117.055 355.475 113.023 354.948 112.965C354.805 113.081 354.497 114.411 354.159 114.131Z" fill="#6DBDFF"/>
<path d="M248.238 230.814C245.754 233.244 242.457 230.559 240.184 229.258C237.929 227.978 241.611 226.37 242.854 226.357C243.972 226.5 250.991 229.314 248.238 230.814ZM246.556 230.981C247.117 230.626 248.669 230.045 247.414 229.397C245.727 228.623 242.783 225.764 240.966 227.755C239.096 228.483 245.962 232.025 246.556 230.981Z" fill="#6DBDFF"/>
<path d="M330.541 73.8831C329.528 73.6476 330.548 72.2102 331.112 71.9859C331.396 71.857 337.541 75.3959 337.439 75.6381C337.006 76.6955 331.805 72.8167 331.299 72.7634C331.161 72.8745 330.865 74.1519 330.541 73.8831Z" fill="#6DBDFF"/>
<path d="M443.78 217.358C441.536 219.552 438.559 217.13 436.508 215.955C434.474 214.798 437.798 213.348 438.92 213.335C439.929 213.466 446.263 216.004 443.78 217.358ZM442.262 217.511C442.769 217.19 444.17 216.664 443.037 216.079C441.512 215.378 438.856 212.799 437.214 214.596C435.527 215.252 441.729 218.452 442.262 217.511Z" fill="#6DBDFF"/>
<path d="M379.894 193.714C378.879 193.478 379.9 192.036 380.466 191.811C380.68 191.704 386.964 195.214 386.813 195.473C386.378 196.532 381.162 192.644 380.654 192.591C380.516 192.702 380.219 193.984 379.894 193.714Z" fill="#6DBDFF"/>
<path d="M351.83 141.195C349.424 143.546 346.233 140.95 344.034 139.691C341.853 138.45 345.417 136.896 346.62 136.881C347.702 137.021 354.492 139.743 351.83 141.195ZM350.203 141.359C350.746 141.014 352.248 140.45 351.033 139.823C349.398 139.071 346.551 136.307 344.791 138.234C342.983 138.936 349.631 142.367 350.203 141.359Z" fill="#6DBDFF"/>
<path d="M173.443 123.211C172.424 122.974 173.449 121.525 174.018 121.299C174.237 121.19 180.542 124.717 180.39 124.979C179.956 126.04 174.714 122.136 174.206 122.083C174.067 122.192 173.77 123.482 173.443 123.211Z" fill="#6DBDFF"/>
<path d="M325.414 121.231C324.396 120.994 325.421 119.549 325.988 119.323C326.203 119.216 332.499 122.734 332.347 122.993C331.911 124.056 326.685 120.158 326.176 120.105C326.037 120.217 325.74 121.501 325.414 121.231Z" fill="#6DBDFF"/>
<path d="M202.832 219.839C200.585 222.035 197.605 219.611 195.551 218.434C193.515 217.276 196.843 215.824 197.966 215.811C198.976 215.942 205.317 218.483 202.832 219.839ZM201.312 219.992C201.819 219.671 203.222 219.143 202.087 218.558C200.561 217.856 197.902 215.275 196.258 217.074C194.57 217.73 200.778 220.933 201.312 219.992Z" fill="#6DBDFF"/>
<path d="M478.948 190.337C476.631 192.601 473.558 190.102 471.44 188.888C469.34 187.693 472.772 186.197 473.93 186.183C474.972 186.318 481.511 188.939 478.948 190.337ZM477.38 190.495C477.904 190.163 479.35 189.62 478.18 189.016C476.606 188.292 473.864 185.63 472.168 187.485C470.427 188.162 476.83 191.466 477.38 190.495Z" fill="#6DBDFF"/>
<path d="M158.071 210.412C157.039 210.172 158.078 208.704 158.654 208.475C158.865 208.368 165.271 211.937 165.114 212.203C164.672 213.28 159.362 209.325 158.845 209.269C158.704 209.382 158.403 210.687 158.071 210.412Z" fill="#6DBDFF"/>
<path d="M232.858 197.31C230.491 199.624 227.35 197.07 225.186 195.83C223.04 194.609 226.547 193.08 227.731 193.066C228.796 193.203 235.478 195.881 232.858 197.31ZM231.256 197.471C231.791 197.133 233.269 196.577 232.074 195.961C230.465 195.221 227.663 192.501 225.931 194.396C224.152 195.088 230.694 198.464 231.256 197.471Z" fill="#6DBDFF"/>
<path d="M359.872 84.1518C357.546 86.4248 354.464 83.9132 352.337 82.6953C350.227 81.498 353.675 79.9934 354.835 79.9819C355.883 80.115 362.448 82.7458 359.872 84.1518ZM358.299 84.3077C358.824 83.9752 360.276 83.4316 359.101 82.826C357.523 82.1013 354.769 79.4269 353.069 81.2893C351.319 81.9705 357.744 85.2848 358.299 84.3077Z" fill="#6DBDFF"/>
<path d="M312.628 28.621L311.629 29.1983C311.175 29.4599 310.688 29.5907 310.165 29.593C309.642 29.5953 309.15 29.4622 308.683 29.1916L305.219 27.1912C304.759 26.925 304.529 26.6431 304.529 26.3387C304.529 26.0342 304.755 25.7523 305.208 25.4907L306.207 24.9156C306.66 24.654 307.15 24.5232 307.675 24.5232C308.201 24.5232 308.692 24.654 309.152 24.9201L312.619 26.9205C313.085 27.1889 313.313 27.4753 313.311 27.7775C313.309 28.0797 313.081 28.3594 312.628 28.621ZM311.081 28.7766L311.899 28.3052C312.459 27.9827 312.447 27.6535 311.868 27.3197L308.462 25.3531C307.883 25.0193 307.317 25.0126 306.757 25.3351L305.936 25.8087C305.384 26.1267 305.397 26.4537 305.977 26.7875L309.382 28.754C309.962 29.0878 310.528 29.0946 311.081 28.7766Z" fill="#6DBDFF"/>
<path d="M312.585 38.2448C310.327 40.4538 307.329 38.013 305.262 36.8294C303.212 35.6658 306.562 34.2035 307.69 34.1924C308.708 34.3217 315.088 36.8806 312.585 38.2448ZM311.056 38.3964C311.566 38.0732 312.977 37.5449 311.836 36.9564C310.302 36.252 307.625 33.653 305.973 35.4629C304.273 36.125 310.516 39.3459 311.056 38.3964Z" fill="#6DBDFF"/>
<path d="M480.914 211.49C478.534 213.816 475.38 211.246 473.205 210C471.046 208.775 474.573 207.236 475.76 207.224C476.833 207.36 483.549 210.052 480.914 211.49ZM479.304 211.652C479.841 211.312 481.327 210.753 480.125 210.134C478.511 209.392 475.692 206.658 473.954 208.561C472.163 209.258 478.736 212.652 479.304 211.652Z" fill="#6DBDFF"/>
<path d="M407.461 574.439L403.873 573.635L396.292 541.19L399.879 541.994L407.461 574.439Z" fill="#CCC7BF"/>
<path d="M398.849 537.592L395.262 536.788L389.143 510.607L392.73 511.411L398.849 537.592Z" fill="#CCC7BF"/>
<path d="M372.442 552.837L368.855 552.033L395.262 536.788L398.849 537.592L372.442 552.837Z" fill="#E0DAD0"/>
<path d="M391.703 507.011L388.116 506.207L381.988 479.991L385.576 480.794L391.703 507.011Z" fill="#CCC7BF"/>
<path d="M365.296 522.256L361.709 521.452L388.114 506.207L391.703 507.011L365.296 522.256Z" fill="#E0DAD0"/>
<path d="M384.546 476.392L380.959 475.589L374.84 449.407L378.428 450.211L384.546 476.392Z" fill="#CCC7BF"/>
<path d="M358.139 491.637L354.552 490.833L380.957 475.589L384.546 476.393L358.139 491.637Z" fill="#E0DAD0"/>
<path d="M377.4 445.811L373.813 445.008L367.694 418.826L371.282 419.63L377.4 445.811Z" fill="#CCC7BF"/>
<path d="M350.995 461.056L347.406 460.252L373.813 445.008L377.4 445.811L350.995 461.056Z" fill="#E0DAD0"/>
<path d="M370.252 415.23L366.665 414.426L360.537 388.21L364.125 389.014L370.252 415.23Z" fill="#CCC7BF"/>
<path d="M363.098 384.614L359.51 383.81L355.275 365.684L358.862 366.487L363.098 384.614Z" fill="#CCC7BF"/>
<path d="M358.862 366.487L355.272 365.684L358.919 363.579L362.508 364.383L358.862 366.487Z" fill="#E0DAD0"/>
<path d="M343.847 430.477L340.26 429.673L366.665 414.429L370.254 415.232L343.847 430.477Z" fill="#E0DAD0"/>
<path d="M336.69 399.856L333.103 399.053L359.51 383.808L363.097 384.612L336.69 399.856Z" fill="#E0DAD0"/>
<path d="M328.837 383.821L325.25 383.017L328.868 380.93L332.455 381.734L328.837 383.821Z" fill="#E0DAD0"/>
<path d="M377.44 591.773L373.853 590.969L325.252 383.018L328.839 383.821L377.44 591.773Z" fill="#CCC7BF"/>
<path d="M358.862 366.487L362.508 364.383L411.109 572.332L407.463 574.439L399.879 541.992L373.474 557.239L381.056 589.683L377.44 591.771L328.839 383.821L332.457 381.732L336.693 399.856L363.098 384.612L358.862 366.487ZM391.703 507.011L385.576 480.792L359.171 496.039L365.298 522.256L391.703 507.011ZM370.254 415.23L364.127 389.014L337.722 404.258L343.847 430.475L370.254 415.23ZM398.851 537.592L392.733 511.411L366.326 526.655L372.444 552.837L398.851 537.592ZM377.4 445.811L371.282 419.63L344.877 434.877L350.996 461.056L377.4 445.811ZM384.549 476.393L378.43 450.213L352.025 465.458L358.142 491.637L384.549 476.393Z" fill="white"/>
<g opacity="0.931719">
<path d="M550.218 383.521L545.062 386.498V381.344L550.218 378.368V383.521Z" fill="#3F8BC9"/>
</g>
<g opacity="0.770006">
<path d="M548.043 290.58L537.733 296.533V286.222L548.043 280.27V290.58Z" fill="#83BEFF"/>
</g>
<g opacity="0.322306">
<path d="M512.772 321.461L500.811 328.37V316.407L512.772 309.497V321.461Z" fill="#3F8BC9"/>
</g>
<g opacity="0.870116">
<path d="M533.057 282.433L527.902 285.409V280.256L533.057 277.28V282.433Z" fill="#3F8BC9"/>
</g>
<g opacity="0.70249">
<path d="M565.088 235.199L559.933 238.175V233.022L565.088 230.046V235.199Z" fill="#3F8BC9"/>
</g>
<g opacity="0.999489">
<path d="M581.874 153.432L576.719 156.408V151.255L581.874 148.279V153.432Z" fill="#3F8BC9"/>
</g>
<g opacity="0.829994">
<path d="M546.438 201.979L541.282 204.955V199.802L546.438 196.826V201.979Z" fill="#83BEFF"/>
</g>
<g opacity="0.70249">
<path d="M500.617 254.639L490.392 260.734L490.25 250.426L500.475 244.331L500.617 254.639Z" fill="#3F8BC9"/>
</g>
<g opacity="0.829994">
<path d="M485.183 249.577L467.847 259.909L467.606 242.433L484.942 232.1L485.183 249.577Z" fill="#520A8A"/>
</g>
<g opacity="0.999997">
<path d="M513.353 210.115L503.043 216.067V205.757L513.353 199.804V210.115Z" fill="#83BEFF"/>
</g>
<g opacity="0.981637">
<path d="M507.013 122.064L501.857 125.04V119.887L507.013 116.911V122.064Z" fill="#520A8A"/>
</g>
<g opacity="0.0698287">
<path d="M421.946 111.535L411.636 117.488V107.177L421.946 101.225V111.535Z" fill="#3F8BC9"/>
</g>
<g opacity="0.0698287">
<path d="M366.879 29.9496L356.568 35.902V25.5915L366.879 19.639V29.9496Z" fill="#520A8A"/>
</g>
<g opacity="0.829994">
<path d="M346.682 56.201L341.526 59.1773V54.0242L346.682 51.048V56.201Z" fill="#3F8BC9"/>
</g>
<g opacity="0.322306">
<path d="M302.117 59.9319L296.962 62.9081V57.755L302.117 54.7788V59.9319Z" fill="#83BEFF"/>
</g>
<g opacity="0.829994">
<path d="M380.118 131.708L374.963 134.685V129.532L380.118 126.555V131.708Z" fill="#3F8BC9"/>
</g>
<g opacity="0.983675">
<path d="M372.018 150.613L361.707 156.565V146.254L372.018 140.302V150.613Z" fill="#83BEFF"/>
</g>
<g opacity="0.59751">
<path d="M272.393 195.71L262.082 201.662V191.352L272.393 185.399V195.71Z" fill="#520A8A"/>
</g>
<path d="M273.866 149.141L268.711 152.117V146.964L273.866 143.988V149.141Z" fill="#3F8BC9"/>
<g opacity="0.322306">
<path d="M259.56 140.917L249.249 146.869V136.559L259.56 130.606V140.917Z" fill="#3F8BC9"/>
</g>
<g opacity="0.368281">
<path d="M178.154 111.499L163.416 120.01V105.271L178.154 96.7605V111.499Z" fill="#3F8BC9"/>
</g>
<g opacity="0.996584">
<path d="M158.729 132.044L148.418 137.996V127.685L158.729 121.733V132.044Z" fill="#3F8BC9"/>
</g>
<g opacity="0.70249">
<path d="M156.151 242.518L150.996 245.494V240.341L156.151 237.365V242.518Z" fill="#83BEFF"/>
</g>
<g opacity="0.322306">
<path d="M65.2843 172.737L56.3535 177.892V168.961L65.2843 163.806V172.737Z" fill="#3F8BC9"/>
</g>
<g opacity="0.920777">
<path d="M36.4852 209.655L32.022 212.233V207.767L36.4852 205.19V209.655Z" fill="#3F8BC9"/>
</g>
<g opacity="0.70249">
<path d="M99.6064 219.538L86.646 227.022V214.059L99.6064 206.576V219.538Z" fill="#520A8A"/>
</g>
<g opacity="0.322306">
<path d="M122.961 223.374L105.901 233.224V216.164L122.961 206.313V223.374Z" fill="#3F8BC9"/>
</g>
<g opacity="0.341765">
<path d="M125.984 264.392L120.829 267.368V262.215L125.984 259.239V264.392Z" fill="#83BEFF"/>
</g>
<g opacity="0.325873">
<path d="M136.895 287.269L126.585 293.222V282.911L136.895 276.959V287.269Z" fill="#3F8BC9"/>
</g>
<g opacity="0.990229">
<path d="M144.99 314.4L127.514 324.489V307.011L144.99 296.922V314.4Z" fill="#520A8A"/>
</g>
<g opacity="0.97143">
<path d="M118.161 311.698L107.851 317.65V307.34L118.161 301.387V311.698Z" fill="#3F8BC9"/>
</g>
<g opacity="0.796868">
<path d="M56.9956 303.515L46.6851 309.467V299.157L56.9956 293.204V303.515Z" fill="#3F8BC9"/>
</g>
</g>
</g>
<defs>
<clipPath id="clip0_100_1688">
<rect width="602" height="648" fill="white"/>
</clipPath>
</defs>
</svg>
