<svg width="229" height="207" viewBox="0 0 229 207" fill="none" xmlns="http://www.w3.org/2000/svg">
<path d="M113.369 120.077L160 93.1547L206.631 120.077V173.923L160 200.845L113.369 173.923V120.077Z" stroke="url(#paint0_linear_66_4)" stroke-width="2"/>
<path d="M60.3686 28.0774L107 1.1547L153.631 28.0774V81.9226L107 108.845L60.3686 81.9226V28.0774Z" stroke="url(#paint1_linear_66_4)" stroke-width="2"/>
<path d="M8.3686 120.077L55 93.1547L101.631 120.077V173.923L55 200.845L8.3686 173.923V120.077Z" stroke="url(#paint2_linear_66_4)" stroke-width="2"/>
<g clip-path="url(#clip0_66_4)">
<path d="M79.2496 153.048C75.9106 166.441 62.3449 174.591 48.9504 171.252C35.5621 167.913 27.4113 154.347 30.7512 140.955C34.0887 127.56 47.6535 119.409 61.0441 122.748C74.4379 126.087 82.5887 139.654 79.2496 153.048Z" fill="#F7931A"/>
<path d="M66.0229 143.438C66.5198 140.112 63.987 138.323 60.5237 137.13L61.6472 132.624L58.9034 131.941L57.8097 136.328C57.0894 136.148 56.3487 135.979 55.6128 135.811L56.7144 131.395L53.9729 130.711L52.8487 135.216C52.2519 135.08 51.6659 134.945 51.0972 134.804L51.1003 134.79L47.3175 133.845L46.5878 136.775C46.5878 136.775 48.6229 137.241 48.58 137.27C49.6909 137.548 49.8925 138.283 49.8581 138.866L48.5784 143.999C48.655 144.019 48.7542 144.047 48.8636 144.091L48.5745 144.019L46.78 151.21C46.644 151.548 46.2995 152.054 45.5229 151.862C45.5503 151.902 43.5292 151.364 43.5292 151.364L42.1675 154.505L45.7378 155.395C46.4019 155.561 47.0526 155.735 47.6925 155.899L46.5573 160.458L49.2972 161.141L50.4222 156.632C51.1698 156.835 51.8964 157.023 52.6073 157.199L51.487 161.688L54.23 162.371L55.3651 157.822C60.0425 158.707 63.5604 158.35 65.0394 154.12C66.2323 150.714 64.9808 148.749 62.5198 147.467C64.312 147.052 65.6628 145.873 66.0229 143.438ZM59.755 152.227C58.9065 155.633 53.1722 153.792 51.312 153.33L52.8183 147.291C54.6776 147.755 60.6386 148.674 59.755 152.227ZM60.6026 143.389C59.8292 146.488 55.0558 144.913 53.5065 144.527L54.8722 139.051C56.4214 139.437 61.4089 140.157 60.6026 143.389Z" fill="white"/>
</g>
<g opacity="0.6">
<mask id="mask0_66_4" style="mask-type:luminance" maskUnits="userSpaceOnUse" x="142" y="135" width="36" height="19">
<path d="M177.996 135.297H142.004V153.786H177.996V135.297Z" fill="white"/>
</mask>
<g mask="url(#mask0_66_4)">
<path d="M159.996 135.297L177.996 143.339L159.996 153.786L142.004 143.339L159.996 135.297Z" fill="white"/>
</g>
</g>
<g opacity="0.45">
<mask id="mask1_66_4" style="mask-type:luminance" maskUnits="userSpaceOnUse" x="159" y="114" width="19" height="40">
<path d="M177.996 114H159.996V153.786H177.996V114Z" fill="white"/>
</mask>
<g mask="url(#mask1_66_4)">
<path d="M177.996 143.339L159.996 153.786V114L177.996 143.339Z" fill="white"/>
</g>
</g>
<g opacity="0.8">
<mask id="mask2_66_4" style="mask-type:luminance" maskUnits="userSpaceOnUse" x="141" y="114" width="19" height="40">
<path d="M159.997 114H141.997V153.786H159.997V114Z" fill="white"/>
</mask>
<g mask="url(#mask2_66_4)">
<path d="M159.997 114V153.786L142.004 143.339L159.997 114Z" fill="white"/>
</g>
</g>
<g opacity="0.45">
<mask id="mask3_66_4" style="mask-type:luminance" maskUnits="userSpaceOnUse" x="159" y="146" width="19" height="26">
<path d="M177.996 146.689H159.996V171.6H177.996V146.689Z" fill="white"/>
</mask>
<g mask="url(#mask3_66_4)">
<path d="M177.996 146.689L159.996 171.6V157.136L177.996 146.689Z" fill="white"/>
</g>
</g>
<g opacity="0.8">
<mask id="mask4_66_4" style="mask-type:luminance" maskUnits="userSpaceOnUse" x="141" y="146" width="19" height="26">
<path d="M159.997 146.689H141.99V171.6H159.997V146.689Z" fill="white"/>
</mask>
<g mask="url(#mask4_66_4)">
<path d="M159.997 157.136V171.6L141.99 146.689L159.997 157.136Z" fill="white"/>
</g>
</g>
<g clip-path="url(#clip1_66_4)">
<mask id="mask5_66_4" style="mask-type:luminance" maskUnits="userSpaceOnUse" x="80" y="30" width="50" height="51">
<path d="M130 30H80V80.641H130V30Z" fill="white"/>
</mask>
<g mask="url(#mask5_66_4)">
<path d="M105 79.8814C118.393 79.8814 129.25 68.8851 129.25 55.3205C129.25 41.7559 118.393 30.7596 105 30.7596C91.6071 30.7596 80.75 41.7559 80.75 55.3205C80.75 68.8851 91.6071 79.8814 105 79.8814Z" fill="url(#paint3_linear_66_4)"/>
<path d="M115.612 65.1069L107.413 45.0277C106.95 43.9896 106.263 43.4832 105.356 43.4832H104.631C103.725 43.4832 103.038 43.9896 102.575 45.0277L99.0063 53.7759H96.3062C95.5 53.7823 94.8437 54.4406 94.8375 55.2635V55.2825C94.8437 56.0991 95.5 56.7638 96.3062 56.7701H97.7563L94.35 65.1069C94.2875 65.2904 94.25 65.4803 94.25 65.6766C94.25 66.145 94.3937 66.5122 94.65 66.797C94.9062 67.0819 95.275 67.2211 95.7375 67.2211C96.0438 67.2148 96.3375 67.1199 96.5812 66.9363C96.8437 66.7527 97.025 66.4868 97.1688 66.183L100.919 56.7638H103.519C104.325 56.7574 104.981 56.0991 104.987 55.2762V55.2382C104.981 54.4216 104.325 53.757 103.519 53.7506H102.131L104.994 46.5279L112.794 66.1767C112.938 66.4805 113.119 66.7464 113.381 66.93C113.625 67.1135 113.925 67.2085 114.225 67.2148C114.687 67.2148 115.05 67.0755 115.312 66.7907C115.575 66.5058 115.713 66.1387 115.713 65.6703C115.719 65.4803 115.688 65.2841 115.612 65.1069Z" fill="white"/>
</g>
</g>
<defs>
<linearGradient id="paint0_linear_66_4" x1="160" y1="92" x2="160" y2="202" gradientUnits="userSpaceOnUse">
<stop stop-color="#8C3BBE"/>
<stop offset="1" stop-color="#8C3BBE" stop-opacity="0"/>
</linearGradient>
<linearGradient id="paint1_linear_66_4" x1="107" y1="0" x2="107" y2="110" gradientUnits="userSpaceOnUse">
<stop stop-color="#8C3BBE"/>
<stop offset="1" stop-color="#8C3BBE" stop-opacity="0"/>
</linearGradient>
<linearGradient id="paint2_linear_66_4" x1="55" y1="92" x2="55" y2="202" gradientUnits="userSpaceOnUse">
<stop stop-color="#8C3BBE"/>
<stop offset="1" stop-color="#8C3BBE" stop-opacity="0"/>
</linearGradient>
<linearGradient id="paint3_linear_66_4" x1="123.08" y1="39.9121" x2="86.6162" y2="70.2047" gradientUnits="userSpaceOnUse">
<stop stop-color="#B6509E"/>
<stop offset="1" stop-color="#2EBAC6"/>
</linearGradient>
<clipPath id="clip0_66_4">
<rect width="50" height="50" fill="white" transform="translate(30 122)"/>
</clipPath>
<clipPath id="clip1_66_4">
<rect width="50" height="50.641" fill="white" transform="translate(80 30)"/>
</clipPath>
</defs>
</svg>
