<svg width="395" height="343" viewBox="0 0 395 343" fill="none" xmlns="http://www.w3.org/2000/svg">
<path d="M82.6987 25.5774L125 1.1547L167.301 25.5774V74.4226L125 98.8453L82.6987 74.4226V25.5774Z" stroke="#26E5FF" stroke-width="2"/>
<path d="M129.699 106.577L172 82.1547L214.301 106.577V155.423L172 179.845L129.699 155.423V106.577Z" stroke="#26E5FF" stroke-width="2"/>
<path d="M176.699 187.577L219 163.155L261.301 187.577V236.423L219 260.845L176.699 236.423V187.577Z" stroke="#26E5FF" stroke-width="2"/>
<path d="M223.699 268.577L266 244.155L308.301 268.577V317.423L266 341.845L223.699 317.423V268.577Z" stroke="#26E5FF" stroke-width="2"/>
<path d="M7.69873 231.577L50 207.155L92.3013 231.577V280.423L50 304.845L7.69873 280.423V231.577Z" stroke="#26E5FF" stroke-width="2"/>
<path d="M302.699 74.5774L345 50.1547L387.301 74.5774V123.423L345 147.845L302.699 123.423V74.5774Z" stroke="#26E5FF" stroke-width="2"/>
<path d="M7.69873 231.577L50 207.155L92.3013 231.577V280.423L50 304.845L7.69873 280.423V231.577Z" stroke="#26E5FF" stroke-width="2"/>
</svg>
